<svg xmlns="http://www.w3.org/2000/svg" xmlns:xlink="http://www.w3.org/1999/xlink" width="50" height="50" version="1.1" viewBox="0 0 50 50"><title>Sync Frequency</title><g fill="none" fill-rule="evenodd" stroke="none" stroke-width="1"><g id="sync-frequency" transform="translate(4.000000, 2.000000)"><g transform="translate(0.000000, 5.000000)"><circle cx="21" cy="21" r="21" stroke="#73C41D" stroke-width="2"/><rect width="2" height="3" x="20" y="36" fill="#73C41D" fill-rule="nonzero"/><rect width="2" height="3" x="20" y="3" fill="#73C41D" fill-rule="nonzero"/><rect width="2" height="3" x="31.667" y="7.833" fill="#73C41D" fill-rule="nonzero" transform="translate(32.667262, 9.332738) rotate(45.000000) translate(-32.667262, -9.332738)"/><rect width="2" height="3" x="8.333" y="31.167" fill="#73C41D" fill-rule="nonzero" transform="translate(9.332738, 32.667262) rotate(45.000000) translate(-9.332738, -32.667262)"/><rect width="2" height="3" x="36.5" y="19.5" fill="#73C41D" fill-rule="nonzero" transform="translate(37.500000, 21.000000) rotate(90.000000) translate(-37.500000, -21.000000)"/><rect width="2" height="3" x="3.5" y="19.5" fill="#73C41D" fill-rule="nonzero" transform="translate(4.500000, 21.000000) rotate(90.000000) translate(-4.500000, -21.000000)"/><rect width="2" height="20" x="20" y="8" fill="#73C41D" fill-rule="nonzero"/><rect width="2" height="3" x="31.667" y="31.167" fill="#73C41D" fill-rule="nonzero" transform="translate(32.667262, 32.667262) rotate(135.000000) translate(-32.667262, -32.667262)"/><rect width="2" height="3" x="8.333" y="7.833" fill="#73C41D" fill-rule="nonzero" transform="translate(9.332738, 9.332738) rotate(135.000000) translate(-9.332738, -9.332738)"/></g><circle cx="21" cy="26" r="3" fill="#FFF" fill-rule="nonzero" stroke="#73C41D" stroke-width="2"/><g fill="#73C41D" fill-rule="nonzero" transform="translate(17.000000, 0.000000)"><rect width="4" height="4" x="2" y="1"/><rect width="8" height="2" x="0" y="0"/></g><g fill="#73C41D" fill-rule="nonzero" transform="translate(37.000000, 9.500000) rotate(45.000000) translate(-37.000000, -9.500000) translate(33.000000, 7.000000)"><rect width="4" height="4" x="2" y="1"/><rect width="8" height="2" x="0" y="0"/></g></g></g></svg>